<svg width="247" height="283" viewBox="0 0 247 283" fill="none" xmlns="http://www.w3.org/2000/svg">
<path d="M246.036 262.33C246.053 262.289 246.068 262.248 246.083 262.206C246.136 262.074 246.181 261.94 246.22 261.804C246.232 261.761 246.244 261.719 246.255 261.675C246.297 261.513 246.33 261.351 246.352 261.188C246.354 261.173 246.358 261.158 246.36 261.144C246.384 260.958 246.395 260.77 246.396 260.584C246.396 260.574 246.399 260.564 246.399 260.554L246.152 21.7095C246.152 21.6683 246.147 21.6292 246.146 21.5881C246.143 21.4933 246.14 21.3987 246.131 21.3043C246.125 21.235 246.115 21.1666 246.106 21.098C246.096 21.0231 246.086 20.9481 246.072 20.8746C246.057 20.7943 246.038 20.7159 246.019 20.6372C246.004 20.5747 245.989 20.5131 245.971 20.4522C245.947 20.3702 245.92 20.2897 245.892 20.2097C245.872 20.151 245.851 20.0926 245.828 20.0349C245.798 19.9591 245.765 19.8851 245.731 19.8113C245.703 19.7489 245.673 19.6872 245.641 19.626C245.608 19.5617 245.573 19.4995 245.537 19.4369C245.497 19.369 245.457 19.3014 245.414 19.2354C245.38 19.1833 245.344 19.1327 245.308 19.0824C245.258 19.0109 245.206 18.941 245.151 18.8725C245.116 18.8287 245.079 18.7859 245.042 18.744C244.983 18.6752 244.922 18.6078 244.858 18.5426C244.818 18.5015 244.776 18.4622 244.735 18.4224C244.671 18.3624 244.608 18.3029 244.54 18.2457C244.489 18.2015 244.435 18.1607 244.381 18.1189C244.32 18.0724 244.26 18.0253 244.196 17.981C244.126 17.9325 244.053 17.8877 243.981 17.8435C243.94 17.8186 243.902 17.7902 243.86 17.7661L214.054 0.722654C214.036 0.712118 214.016 0.705036 213.997 0.695026C213.86 0.619462 213.721 0.551335 213.577 0.490043C213.54 0.474382 213.504 0.457969 213.467 0.443136C213.129 0.309837 212.777 0.217553 212.417 0.167947C212.375 0.162352 212.334 0.158111 212.292 0.153866C212.143 0.13706 211.994 0.128362 211.844 0.126433C211.811 0.125954 211.779 0.12412 211.747 0.124466C211.384 0.127914 211.02 0.175774 210.662 0.268723C210.621 0.279209 210.582 0.291352 210.542 0.302663C210.404 0.342148 210.27 0.388547 210.135 0.441485C210.091 0.458806 210.046 0.475 210.003 0.493975C209.838 0.564774 209.676 0.643012 209.518 0.734481C209.515 0.736205 209.511 0.737631 209.508 0.739355C209.507 0.740107 209.507 0.740632 209.506 0.74138L2.65379 121.159C1.25084 121.975 0.391308 123.478 0.398979 125.102L0.559277 159.403C0.559206 159.415 0.561312 159.426 0.561766 159.437C0.564076 159.626 0.575863 159.815 0.601782 160.005L0.602237 160.006C0.627095 160.185 0.665347 160.363 0.712318 160.54C0.721954 160.576 0.732723 160.613 0.743485 160.649C0.785485 160.793 0.835149 160.936 0.891962 161.077C0.905283 161.111 0.917776 161.145 0.932222 161.179C1.00468 161.347 1.08406 161.512 1.17855 161.674C1.27206 161.834 1.37625 161.983 1.48532 162.127C1.49367 162.138 1.5006 162.151 1.50895 162.162C1.88243 162.646 2.33891 163.039 2.84746 163.33C2.85536 163.334 2.86416 163.337 2.87206 163.342L209.953 281.753C211.364 282.56 213.097 282.553 214.5 281.737L244.144 264.48C244.155 264.473 244.165 264.465 244.176 264.459C244.336 264.364 244.491 264.261 244.639 264.147C244.645 264.141 244.652 264.135 244.659 264.13C244.793 264.025 244.919 263.911 245.042 263.79C245.075 263.758 245.106 263.725 245.139 263.691C245.234 263.592 245.324 263.487 245.411 263.378C245.441 263.34 245.471 263.304 245.5 263.266C245.601 263.129 245.697 262.987 245.784 262.837C245.789 262.83 245.794 262.823 245.798 262.816C245.799 262.814 245.8 262.812 245.801 262.811C245.89 262.653 245.967 262.493 246.036 262.33ZM9.61618 151.501L9.50487 127.692L207.289 12.5513L208.184 201.86L187.497 190.031L186.863 56.2084C186.863 56.1916 186.861 56.1757 186.86 56.1594C186.859 56.063 186.852 55.9671 186.844 55.8706C186.84 55.815 186.838 55.7587 186.831 55.7038C186.821 55.6172 186.805 55.5314 186.79 55.4448C186.779 55.3804 186.77 55.3158 186.755 55.2526C186.74 55.1825 186.719 55.1132 186.701 55.0433C186.679 54.9655 186.66 54.8874 186.635 54.8116C186.616 54.7566 186.595 54.703 186.574 54.6486C186.541 54.5599 186.508 54.4715 186.47 54.3855C186.449 54.3388 186.425 54.2934 186.403 54.2471C186.359 54.1573 186.315 54.0677 186.265 53.9813C186.257 53.967 186.251 53.9526 186.242 53.9385C186.221 53.9021 186.197 53.8697 186.174 53.834C186.126 53.7569 186.078 53.6807 186.026 53.6066C185.984 53.5481 185.941 53.4928 185.898 53.4372C185.852 53.3789 185.807 53.3211 185.759 53.2649C185.705 53.2022 185.648 53.1425 185.592 53.0832C185.549 53.0381 185.506 52.9934 185.461 52.9504C185.398 52.8896 185.332 52.8314 185.266 52.7747C185.222 52.7367 185.176 52.6983 185.13 52.662C185.063 52.6088 184.994 52.5583 184.924 52.509C184.872 52.4724 184.819 52.4369 184.766 52.4027C184.699 52.3599 184.632 52.3197 184.564 52.2809C184.501 52.2453 184.439 52.2109 184.375 52.1785C184.311 52.1464 184.248 52.1165 184.184 52.0874C184.112 52.0549 184.04 52.0239 183.967 51.9954C183.905 51.9713 183.844 51.9494 183.781 51.9282C183.704 51.9019 183.627 51.8772 183.549 51.8549C183.483 51.8363 183.417 51.8206 183.351 51.8049C183.276 51.7874 183.202 51.7707 183.126 51.757C183.048 51.7428 182.969 51.7321 182.891 51.722C182.826 51.7134 182.761 51.7052 182.695 51.6996C182.6 51.6912 182.504 51.688 182.408 51.6861C182.37 51.6853 182.333 51.6808 182.295 51.6808C182.281 51.6808 182.266 51.683 182.252 51.683C182.147 51.6842 182.043 51.6913 181.938 51.6998C181.891 51.7036 181.844 51.7058 181.797 51.7111C181.7 51.7219 181.603 51.7387 181.507 51.7563C181.454 51.7661 181.399 51.7738 181.346 51.7852C181.266 51.803 181.186 51.8259 181.106 51.848C181.039 51.8664 180.97 51.8837 180.904 51.9052C180.841 51.9258 180.78 51.9506 180.718 51.9745C180.637 52.0049 180.555 52.0346 180.477 52.0697C180.426 52.0924 180.376 52.1189 180.326 52.1432C180.239 52.1858 180.153 52.2279 180.069 52.2755C180.055 52.2834 180.04 52.2896 180.025 52.298L9.61618 151.501ZM178.377 184.817L103.295 141.884L177.968 98.4125L178.377 184.817ZM212.182 272.563L14.2001 159.355L177.807 64.1108L177.919 87.9185L62.2669 155.246C61.5774 155.648 61.0051 156.225 60.6095 156.917C59.3639 159.095 60.122 161.871 62.3031 163.118L88.4344 178.06C90.6155 179.307 93.3921 178.553 94.6377 176.374C95.8832 174.196 95.1251 171.421 92.944 170.173L73.6509 159.141L94.2267 147.163L180.703 196.612C180.706 196.613 180.708 196.615 180.71 196.617C180.713 196.618 180.716 196.619 180.719 196.621L208.234 212.354L208.347 236.162L108.738 179.205C106.557 177.957 103.78 178.712 102.535 180.89C101.289 183.068 102.047 185.844 104.228 187.091L210.671 247.957C210.674 247.958 210.676 247.96 210.679 247.962C210.682 247.963 210.685 247.964 210.687 247.966L232.757 260.586L212.182 272.563ZM217.465 241.376L216.383 12.5185L237.061 24.3426L237.296 252.716L217.465 241.376Z" fill="#e3f541"/>
</svg>
