<svg width="248" height="248" viewBox="0 0 248 248" fill="none" xmlns="http://www.w3.org/2000/svg">
<path d="M186.001 124C151.756 124 124.001 151.755 124.001 186C124.001 220.245 151.756 248 186.001 248C220.245 248 248 220.245 248 186C248 151.755 220.245 124 186.001 124ZM220.111 205.995C218.53 217.155 208.661 225.267 197.388 225.267H194.495V229.483C194.495 233.998 190.847 237.667 186.331 237.667H186.125C181.619 237.667 177.972 233.988 177.972 229.483V225.267H175.905C168.558 225.267 161.976 221.908 157.615 216.659C153.296 211.451 156.964 203.577 163.733 203.577C166.078 203.577 169.003 204.683 170.594 206.408C171.916 207.845 173.818 208.744 175.915 208.744H197.646C200.519 208.744 203.143 206.811 203.701 203.99C204.352 200.704 202.193 197.635 199.041 196.995L170.201 191.218C158.711 188.914 150.692 177.981 152.376 166.015C153.947 154.855 163.826 146.733 175.099 146.733H177.992V142.6C177.992 138.033 181.692 134.333 186.259 134.333C190.826 134.333 194.526 138.033 194.526 142.6V146.733H196.592C203.939 146.733 210.521 150.081 214.882 155.341C219.201 160.549 215.533 168.423 208.765 168.423C206.419 168.423 203.495 167.317 201.903 165.592C200.581 164.155 198.68 163.256 196.582 163.256H174.861C171.989 163.256 169.364 165.178 168.796 167.989C168.134 171.275 170.304 174.365 173.435 174.995L202.286 180.771C213.776 183.065 221.805 194.019 220.111 205.974V205.995ZM248 20.6667V62C248 67.704 243.381 72.3333 237.667 72.3333C231.953 72.3333 227.334 67.704 227.334 62V35.278L185.36 77.252C171.472 91.14 148.873 91.1503 134.986 77.252L108.749 51.026C102.922 45.198 93.4253 45.198 87.587 51.026L17.6414 120.972C15.6264 122.987 12.9811 124 10.3358 124C7.6905 124 5.0452 122.987 3.03022 120.972C-1.01007 116.932 -1.01007 110.401 3.03022 106.361L72.9758 36.4147C86.8637 22.5163 109.473 22.5163 123.361 36.4147L149.597 62.6407C155.435 68.4893 164.931 68.4583 170.749 62.6407L212.722 20.6667H186.001C180.286 20.6667 175.667 16.0373 175.667 10.3333C175.667 4.62933 180.286 0 186.001 0H227.334C238.731 0 248 9.269 248 20.6667ZM31.0023 155V237.667C31.0023 243.381 26.373 248 20.669 248C14.9651 248 10.3358 243.381 10.3358 237.667V155C10.3358 149.286 14.9651 144.667 20.669 144.667C26.373 144.667 31.0023 149.286 31.0023 155ZM82.6684 108.5V237.667C82.6684 243.381 78.0391 248 72.3352 248C66.6312 248 62.0019 243.381 62.0019 237.667V108.5C62.0019 102.796 66.6312 98.1667 72.3352 98.1667C78.0391 98.1667 82.6684 102.796 82.6684 108.5ZM124.001 134.333C118.297 134.333 113.668 129.704 113.668 124V103.333C113.668 97.6293 118.297 93 124.001 93C129.705 93 134.335 97.6293 134.335 103.333V124C134.335 129.704 129.705 134.333 124.001 134.333Z" fill="#E5EFEF"/>
</svg>
