<svg width="512" height="470" viewBox="0 0 512 470" fill="none" xmlns="http://www.w3.org/2000/svg">
<path d="M512 384V64C512 28.7147 483.285 0 448 0H64C28.7147 0 0 28.7147 0 64V384H234.667V426.667H128V469.333H384V426.667H277.333V384H512ZM292.395 121.792L322.56 91.6267L392.917 162.005C409.451 178.539 409.451 205.461 392.917 221.995L322.539 292.373L292.373 262.208L362.731 191.829L292.373 121.792H292.395ZM219.627 262.208L189.461 292.373L119.104 221.995C102.571 205.461 102.571 178.539 119.104 162.005L189.483 91.6267L219.648 121.792L149.291 192.171L219.627 262.208Z" fill="#E5EFEF"/>
</svg>
