<svg width="24" height="24" viewBox="0 0 24 24" fill="none" xmlns="http://www.w3.org/2000/svg">
<path d="M23.707 23.7128C23.512 23.9078 23.256 24.0058 23 24.0058C22.744 24.0058 22.488 23.9078 22.293 23.7128L16.324 17.7438C14.599 19.1558 12.397 20.0058 10 20.0058C4.486 20.0058 0 15.5198 0 10.0058C0 4.49182 4.486 0.00581592 10 0.00581592C13.009 0.00581592 15.705 1.34782 17.54 3.45782L11.422 10.5138L9.494 8.58582C9.092 8.18382 8.531 7.96982 7.97 7.99482C7.404 8.02082 6.87 8.28582 6.508 8.72082L3.232 12.6518C2.878 13.0758 2.936 13.7068 3.36 14.0598C3.548 14.2158 3.774 14.2918 4 14.2918C4.287 14.2918 4.571 14.1688 4.77 13.9318L8.082 9.99882L10.01 11.9268C10.406 12.3228 10.958 12.5328 11.515 12.5188C12.076 12.4978 12.607 12.2428 12.973 11.8188L18.736 5.14682C19.54 6.58682 20.003 8.24182 20.003 10.0048C20.003 12.4028 19.153 14.6048 17.741 16.3288L23.71 22.2978C24.101 22.6888 24.101 23.3208 23.71 23.7118L23.707 23.7128ZM21.751 1.65382C22.112 1.23582 22.065 0.603816 21.647 0.242816C21.231 -0.116184 20.599 -0.0731841 20.237 0.345816L17.539 3.45682C17.992 3.97682 18.394 4.54082 18.732 5.14682L21.75 1.65282L21.751 1.65382Z" fill="#F6F2F1"/>
</svg>
