<svg width="24" height="24" viewBox="0 0 24 24" fill="none" xmlns="http://www.w3.org/2000/svg">
<path d="M4.636 13.705L5.274 17H4.013L4.636 13.705ZM24 3V7H0V3C0 1.346 1.346 0 3 0H21C22.654 0 24 1.346 24 3ZM5 3.5C5 2.672 4.328 2 3.5 2C2.672 2 2 2.672 2 3.5C2 4.328 2.672 5 3.5 5C4.328 5 5 4.328 5 3.5ZM9 3.5C9 2.672 8.328 2 7.5 2C6.672 2 6 2.672 6 3.5C6 4.328 6.672 5 7.5 5C8.328 5 9 4.328 9 3.5ZM10.2 13.6C9.814 13.6 9.5 13.6 9.5 13.6V18.402C9.5 18.402 9.814 18.402 10.2 18.402C10.586 18.402 10.9 18.088 10.9 17.702V14.302C10.9 13.916 10.586 13.602 10.2 13.602V13.6ZM21.5 11.551V10H19.5V11.551C18.084 11.791 17 13.017 17 14.5C17 15.822 17.793 16.994 19.021 17.486L21.235 18.371C21.699 18.557 21.999 19 21.999 19.5C21.999 20.051 21.55 20.5 20.999 20.5H19.999C19.448 20.5 18.999 20.051 18.999 19.5V19H16.999V19.5C16.999 20.983 18.083 22.21 19.499 22.449V24H21.499V22.449C22.915 22.209 23.999 20.983 23.999 19.5C23.999 18.178 23.206 17.006 21.978 16.514L19.764 15.629C19.3 15.443 19 15 19 14.5C19 13.949 19.449 13.5 20 13.5H21C21.551 13.5 22 13.949 22 14.5V15H24V14.5C24 13.017 22.916 11.79 21.5 11.551ZM15 14.5V19.5C15 20.415 15.265 21.262 15.696 22H0V9H17.5V10.196C16.013 11.063 15 12.658 15 14.5ZM7.4 19.999L6.003 13.192C5.883 12.524 5.414 12 4.657 12C3.9 12 3.376 12.587 3.272 13.167L1.9 20H3.369L3.644 18.526H5.65L5.912 20L7.4 19.999ZM12.5 14.3C12.5 13.031 11.469 12 10.2 12H7.9V20H10.2C11.469 20 12.5 18.969 12.5 17.7V14.3Z" fill="#F6F2F1"/>
</svg>
