<svg width="512" height="512" viewBox="0 0 512 512" fill="none" xmlns="http://www.w3.org/2000/svg">
<path d="M298.656 234.234C294.438 234.233 290.314 232.981 286.806 230.637C283.299 228.293 280.565 224.961 278.951 221.064C277.337 217.166 276.914 212.877 277.737 208.74C278.56 204.602 280.591 200.801 283.574 197.818L346.848 134.543C323.428 115.523 293.951 105.559 263.794 106.467C233.638 107.376 204.814 119.097 182.582 139.492C179.173 142.884 176.001 146.505 173.088 150.33C169.268 155.838 164.351 160.498 158.647 164.018C152.942 167.538 146.572 169.843 139.936 170.788C103.742 173.238 69.6508 188.677 43.9362 214.266C-19.1252 277.348 -13.6638 385.466 56.2028 455.332C90.9773 490.771 138.374 510.991 188.022 511.567C208.235 511.836 228.301 508.092 247.057 500.552C265.813 493.012 282.888 481.826 297.291 467.642C322.879 441.927 338.319 407.836 340.768 371.642C341.713 365.005 344.018 358.636 347.539 352.931C351.059 347.227 355.719 342.31 361.227 338.49C365.052 335.576 368.673 332.405 372.064 328.996C392.435 306.752 404.14 277.931 405.048 247.782C405.956 217.633 396.008 188.16 377.014 164.73L313.739 228.004C309.736 231.998 304.311 234.238 298.656 234.234ZM164.406 419.983C160.405 423.982 154.98 426.229 149.323 426.229C143.666 426.229 138.241 423.982 134.24 419.983L91.5735 377.316C87.6875 373.293 85.5372 367.904 85.5858 362.31C85.6344 356.717 87.878 351.366 91.8334 347.411C95.7888 343.455 101.139 341.212 106.733 341.163C112.326 341.115 117.715 343.265 121.739 347.151L164.406 389.818C168.405 393.818 170.652 399.243 170.652 404.9C170.652 410.557 168.405 415.982 164.406 419.983ZM213.323 362.234C200.665 362.234 188.291 358.48 177.766 351.448C167.242 344.415 159.039 334.42 154.195 322.725C149.351 311.031 148.083 298.163 150.553 285.748C153.022 273.333 159.117 261.929 168.068 252.979C177.019 244.028 188.422 237.933 200.837 235.463C213.252 232.994 226.12 234.261 237.815 239.105C249.509 243.949 259.504 252.152 266.537 262.677C273.569 273.202 277.323 285.576 277.323 298.234C277.323 315.208 270.58 331.486 258.578 343.488C246.575 355.491 230.297 362.234 213.323 362.234ZM234.656 298.234C234.656 302.453 233.405 306.578 231.061 310.086C228.717 313.594 225.385 316.328 221.487 317.943C217.589 319.558 213.299 319.98 209.161 319.157C205.023 318.334 201.221 316.302 198.238 313.319C195.254 310.335 193.223 306.534 192.399 302.396C191.576 298.257 191.999 293.968 193.613 290.07C195.228 286.172 197.962 282.84 201.471 280.496C204.979 278.151 209.104 276.9 213.323 276.9C218.981 276.9 224.407 279.148 228.408 283.149C232.409 287.149 234.656 292.576 234.656 298.234ZM500.939 63.951L496.374 68.5163C480.836 84.0095 461.596 95.2744 440.48 101.242L377.014 164.73C372.864 158.907 368.286 153.38 363.318 148.239C358.176 143.27 352.671 138.692 346.848 134.543L410.315 71.0763C416.282 49.9609 427.547 30.721 443.04 15.183L447.606 10.6176C454.717 3.73382 464.248 -0.0791039 474.145 0.00124456C484.042 0.0815931 493.511 4.04878 500.509 11.0472C507.508 18.0455 511.475 27.5143 511.555 37.4111C511.636 47.308 507.823 56.8399 500.939 63.951Z" fill="#E5EFEF"/>
</svg>
