<svg width="512" height="512" viewBox="0 0 512 512" fill="none" xmlns="http://www.w3.org/2000/svg">
<path d="M378.048 64L347.904 24.9173C341.899 17.1905 334.215 10.9316 325.433 6.61449C316.651 2.29742 307.002 0.0354783 297.216 0L214.784 0C204.998 0.0354783 195.349 2.29742 186.567 6.61449C177.785 10.9316 170.101 17.1905 164.096 24.9173L133.952 64H378.048Z" fill="#E5EFEF"/>
<path d="M256 384C303.129 384 341.334 345.795 341.334 298.667C341.334 251.539 303.129 213.333 256 213.333C208.872 213.333 170.667 251.539 170.667 298.667C170.667 345.795 208.872 384 256 384Z" fill="#E5EFEF"/>
<path d="M405.333 106.667H106.667C78.3873 106.7 51.2759 117.949 31.2794 137.946C11.2828 157.942 0.0338743 185.054 0 213.333L0 405.333C0.0338743 433.613 11.2828 460.724 31.2794 480.721C51.2759 500.717 78.3873 511.966 106.667 512H405.333C433.613 511.966 460.724 500.717 480.721 480.721C500.717 460.724 511.966 433.613 512 405.333V213.333C511.966 185.054 500.717 157.942 480.721 137.946C460.724 117.949 433.613 106.7 405.333 106.667ZM256 426.667C230.684 426.667 205.937 419.159 184.887 405.095C163.838 391.03 147.431 371.039 137.743 347.65C128.055 324.261 125.521 298.525 130.459 273.695C135.398 248.865 147.589 226.058 165.49 208.157C183.391 190.256 206.199 178.065 231.028 173.126C255.858 168.187 281.595 170.722 304.983 180.41C328.372 190.098 348.363 206.504 362.428 227.554C376.493 248.603 384 273.35 384 298.667C383.966 332.604 370.47 365.141 346.472 389.139C322.475 413.136 289.937 426.633 256 426.667Z" fill="#E5EFEF"/>
</svg>
