<svg width="248" height="248" viewBox="0 0 248 248" fill="none" xmlns="http://www.w3.org/2000/svg">
<path d="M175.533 25.8333C175.533 11.563 187.096 0 201.366 0C215.636 0 227.199 11.563 227.199 25.8333C227.199 40.1037 215.636 51.6667 201.366 51.6667C187.096 51.6667 175.533 40.1037 175.533 25.8333ZM248 103.333V134.333C248 149.565 239.63 162.75 227.334 169.921V237.667C227.334 243.381 222.715 248 217 248C211.286 248 206.667 243.381 206.667 237.667V175.667H186.001V237.667C186.001 243.381 181.382 248 175.668 248C169.953 248 165.334 243.381 165.334 237.667V81.127C160.127 79.515 155.322 76.694 151.571 72.6123L100.886 17.3187C97.032 13.113 97.311 6.572 101.527 2.71767C105.743 -1.13667 112.273 -0.847333 116.128 3.35833L166.812 58.6623C168.755 60.791 171.545 62.0103 174.428 62.0103H206.667C229.462 62.0103 248 80.5483 248 103.344V103.333ZM55.0276 150.34C47.4637 142.796 35.1775 142.786 27.8616 150.123L3.24795 173.311C-0.905999 177.227 -1.10233 183.768 2.81395 187.912C6.7199 192.076 13.2608 192.272 17.4148 188.346L30.9926 175.553V237.667C30.9926 243.381 35.6115 248 41.3258 248C47.04 248 51.659 243.381 51.659 237.667V175.553L65.2368 188.346C67.2311 190.237 69.7731 191.156 72.3254 191.156C75.074 191.156 77.8123 190.071 79.8479 187.912C83.7642 183.768 83.5679 177.227 79.4139 173.311L55.0276 150.34ZM127.36 98.673C119.806 91.109 107.51 91.1193 100.194 98.456L75.5803 121.644C71.4264 125.56 71.23 132.101 75.1463 136.245C79.0523 140.399 85.6035 140.606 89.7471 136.679L103.325 123.886V237.667C103.325 243.381 107.944 248 113.658 248C119.372 248 123.991 243.381 123.991 237.667V123.886L137.569 136.679C139.563 138.57 142.105 139.49 144.658 139.49C147.406 139.49 150.145 138.405 152.18 136.245C156.097 132.101 155.9 125.56 151.746 121.644L127.36 98.673Z" fill="#E5EFEF"/>
</svg>
