<svg width="324" height="260" viewBox="0 0 324 260" fill="none" xmlns="http://www.w3.org/2000/svg">
<path d="M324 82.7273V35.4545C324 15.9073 305.829 0 283.5 0H40.5C18.171 0 0 15.9073 0 35.4545V82.7273H324ZM101.25 23.6364C112.428 23.6364 121.5 31.5782 121.5 41.3636C121.5 51.1491 112.428 59.0909 101.25 59.0909C90.072 59.0909 81 51.1491 81 41.3636C81 31.5782 90.072 23.6364 101.25 23.6364ZM47.25 23.6364C58.428 23.6364 67.5 31.5782 67.5 41.3636C67.5 51.1491 58.428 59.0909 47.25 59.0909C36.072 59.0909 27 51.1491 27 41.3636C27 31.5782 36.072 23.6364 47.25 23.6364ZM0 106.364V260H324V106.364H0ZM175.5 189.091C175.5 208.638 157.329 224.545 135 224.545C112.671 224.545 94.5 208.638 94.5 189.091V141.818H121.5V189.091C121.5 195.603 127.562 200.909 135 200.909C142.438 200.909 148.5 195.603 148.5 189.091V141.818H175.5V189.091ZM229.5 224.545H202.5V141.818H229.5V224.545Z" fill="#1E2929"/>
</svg>
